<?xml version="1.0" standalone="no"?>
<!DOCTYPE svg PUBLIC "-//W3C//DTD SVG 1.1//EN" "http://www.w3.org/Graphics/SVG/1.1/DTD/svg11.dtd" >
<svg xmlns="http://www.w3.org/2000/svg">
<metadata></metadata>
<defs>
<font id="stxingkairegular" horiz-adv-x="1024" vert-adv-y="2048" >
<font-face units-per-em="2048" ascent="1638" descent="-410" />
<missing-glyph horiz-adv-x="499" />
<glyph horiz-adv-x="0" vert-adv-y="0" />
<glyph horiz-adv-x="682" />
<glyph unicode=" " horiz-adv-x="499" vert-adv-y="2234" />
<glyph unicode="!" horiz-adv-x="704" vert-adv-y="2234" d="M131 109q0 70 33 145.5t67 75.5q35 0 67 -37t32 -84q0 -57 -38 -129t-73 -72q-33 0 -60.5 27.5t-27.5 73.5zM252 471q0 49 461 811q16 6 35 6q82 0 141 -80l-275 -405q-133 -197 -225 -348q18 -2 19 -23q0 -12 -25 -41t-41 -29q-23 0 -56.5 39t-33.5 70z" />
<glyph unicode="&#x22;" horiz-adv-x="618" vert-adv-y="2234" d="M221 1010v237h150v-237l-31 -271h-88zM485 1010v237h152v-237l-31 -271h-88z" />
<glyph unicode="#" horiz-adv-x="1245" vert-adv-y="2234" d="M111 319v132h200l66 317h-266v131h292l78 363h129l-78 -363h365l78 363h131l-78 -363h172v-131h-199l-65 -317h264v-132h-289l-77 -360h-132l78 360h-366l-76 -360h-131l76 360h-172zM440 451h367l65 317h-366z" />
<glyph unicode="$" horiz-adv-x="1507" vert-adv-y="2234" d="M68 137q0 68 58 129.5t126 61.5q16 0 31 -4q-70 -29 -70 -58q0 -28 242 -28l219 378q-164 45 -242 87t-78 98q0 117 53.5 235.5t242 190t423.5 82.5l133 233l94 -53l-102 -176q90 0 147.5 -16.5t76 -29t18.5 -42.5q0 -63 -19.5 -106.5t-64.5 -61.5l-58 -21 q-66 -23 -96.5 -38t-93.5 -56q-27 -16 -37 -16q-4 0 -4 4q0 8 33 34.5t90 59.5q78 41 78 59t-88 19q-72 0 -105 -2l-231 -400q156 -53 261 -132t105 -162q0 -70 -65.5 -181.5t-287.5 -161t-408 -49.5l-134 -231l-92 51l107 184q-100 8 -181 35t-81 84zM489 862 q0 -23 14.5 -45t31.5 -26l204 -58l205 354q-209 -29 -332 -92t-123 -133zM578 240q334 0 522 168q-87 108 -318 186z" />
<glyph unicode="%" horiz-adv-x="1409" vert-adv-y="2234" d="M215 41q0 39 49 106q90 117 303 338q166 174 339 326t370 305q12 8 20 8q20 0 21 -34q0 -35 -47 -91.5t-150 -152.5q-492 -459 -751 -842q-68 -100 -95 -100q-20 0 -39.5 48t-19.5 89zM305 805q0 139 115 262t225 123q59 0 86 -53q59 -10 60 -99q0 -145 -106.5 -280 t-227.5 -135q-72 0 -112 52t-40 130zM414 827q0 -41 20.5 -60t40.5 -19q86 0 169 99t83 185q0 57 -33 58l-67 -15q-10 0 -19.5 6t-11.5 6q-31 0 -106.5 -91t-75.5 -169zM754 162q0 115 103.5 232.5t213.5 117.5q41 0 72 -45q41 -12 50 -44t9 -65q0 -143 -115.5 -272 t-191.5 -129q-49 0 -95 61.5t-46 143.5zM840 156q0 -86 51 -86q59 0 142 120.5t83 190.5q1 47 -26 47q-25 0 -88.5 -37t-112.5 -103.5t-49 -131.5z" />
<glyph unicode="&#x26;" horiz-adv-x="1003" vert-adv-y="2234" d="M82 348q0 129 98.5 235.5t286.5 204.5q-10 45 -10 93q0 178 137 322.5t305 144.5q82 0 130 -40t48 -108q0 -88 -75.5 -178t-344.5 -254q29 -121 97 -258q117 76 164 129q102 111 110 111q10 0 16.5 -29t6.5 -49q0 -150 -187 -330l66 -72q41 49 57 49q18 0 19 -26 q0 -49 -57.5 -141.5t-94.5 -92.5q-47 0 -129 131q-233 -182 -360 -182q-121 0 -202 102.5t-81 237.5zM244 340q0 -74 67 -74q51 0 134 33t167 94l-112 264q-117 -84 -186.5 -172t-69.5 -145zM633 948q0 -17 2 -33q152 86 227.5 174.5t75.5 139.5q0 45 -41 45 q-74 0 -169 -105.5t-95 -220.5z" />
<glyph unicode="'" horiz-adv-x="448" vert-adv-y="2234" d="M270 1010v237h148v-237l-25 -269h-92z" />
<glyph unicode="(" horiz-adv-x="681" vert-adv-y="2234" d="M240 446q0 244 108.5 451t235.5 339t168 132q25 0 24 -55q0 -55 -84 -146q-139 -150 -219 -350.5t-80 -388.5q0 -175 70 -281q12 35 20 35q6 0 13.5 -21.5t7.5 -43.5q0 -47 -23.5 -79t-60.5 -32q-74 0 -127 132t-53 308z" />
<glyph unicode=")" horiz-adv-x="681" vert-adv-y="2234" d="M109 72q0 20 12 39q158 244 244 488.5t86 420.5q0 123 -41 174q-8 -18 -17 -18q-6 0 -6 22q0 59 31 97t65 38q49 0 92 -84t43 -217q0 -279 -180 -651.5t-276 -372.5q-23 0 -38 18.5t-15 45.5z" />
<glyph unicode="*" horiz-adv-x="661" vert-adv-y="2234" d="M-74 1100q0 18 34 66t50 48q35 0 228 -124q0 74 -25 149q-23 80 -23 92q0 20 14.5 25.5t47.5 5.5q45 0 70.5 -18.5t25.5 -51.5q0 -18 -14 -82q-8 -43 -17 -123q37 18 50 37q59 76 93 115t58 39q23 0 53.5 -60.5t30.5 -84.5q0 -33 -20 -39q-164 -43 -217 -72 q205 -47 218 -53t13 -29q0 -35 -33 -76t-57 -41q-6 0 -29 19q-82 59 -151 98q33 -190 32 -195q0 -27 -14 -43t-41 -16q-113 0 -113 53q0 6 7 17q27 55 39 184q-51 -35 -76 -55q-55 -47 -82 -62.5t-74 -15.5q-18 0 -47 29.5t-29 56.5q0 14 16.5 22.5t75.5 26.5q119 33 173 64 l-173 45q-82 23 -88 28.5t-6 20.5z" />
<glyph unicode="+" horiz-adv-x="1366" vert-adv-y="2234" d="M170 547v158h469v471h158v-471h471v-158h-471v-465h-158v465h-469z" />
<glyph unicode="," horiz-adv-x="681" vert-adv-y="2234" d="M133 18q0 41 63.5 112t104.5 71q37 0 37 -45t-48 -117t-91 -110t-58 -38q-6 0 -6 7q0 11 49 77q-33 8 -42 15.5t-9 27.5z" />
<glyph unicode="-" horiz-adv-x="1044" vert-adv-y="2234" d="M256 453q0 29 62.5 87t234.5 58q51 0 147 -10q35 8 41 8l50 -8q55 -6 55 -17q0 -12 -52.5 -55t-101.5 -57.5t-143 -21.5t-170 -7q-72 0 -97.5 4t-25.5 19z" />
<glyph unicode="." horiz-adv-x="681" vert-adv-y="2234" d="M117 45q0 41 49 112.5t94 71.5q43 0 43 -53q0 -49 -51 -114.5t-94 -65.5q-16 0 -28.5 13.5t-12.5 35.5z" />
<glyph unicode="/" horiz-adv-x="575" vert-adv-y="2234" d="M4 -135l424 1515h145l-423 -1515h-146z" />
<glyph unicode="0" horiz-adv-x="897" vert-adv-y="2234" d="M12 362q0 182 125 394.5t309.5 351.5t321.5 139q111 0 119 -86q49 -23 69.5 -71t20.5 -138q0 -217 -116 -445t-281.5 -366.5t-290.5 -138.5q-115 0 -196 100.5t-81 259.5zM152 287q0 -117 84 -117q98 0 264 137t273.5 320.5t107.5 335.5q0 96 -70 96q-66 0 -154 -94 l35 73q-211 -94 -375.5 -336.5t-164.5 -414.5z" />
<glyph unicode="1" horiz-adv-x="555" vert-adv-y="2234" d="M66 176q0 131 105 391t267 514q-112 -45 -237 -125v82q199 174 360 260q53 -84 53 -155q0 -41 -16 -93.5t-113 -248.5q-111 -229 -180 -434t-61 -242q14 -66 14 -90q0 -27 -16 -31q-37 0 -106.5 45t-69.5 127z" />
<glyph unicode="2" horiz-adv-x="897" vert-adv-y="2234" d="M10 207q0 47 48 120.5t140.5 157.5t213.5 154l213 123q94 55 118.5 69.5t68.5 54.5t65.5 72.5t21.5 55.5q0 31 -27.5 45t-58.5 14q-100 0 -248 -53t-254 -141q98 -2 146.5 -12.5t48.5 -37.5q0 -12 -21.5 -20t-129 -29.5t-126.5 -21.5q-33 0 -32 49q0 43 17 108.5t47 125 t65.5 89t134 61.5t205 51.5t178.5 19.5q47 0 67.5 -9.5t53 -91.5t32.5 -166q0 -104 -50 -178t-134 -133t-256 -166q-420 -260 -446 -315q96 8 263 39.5t287.5 61.5t122.5 30q18 0 19 -25q0 -63 -53.5 -144t-189.5 -122t-355 -41q-63 0 -104.5 14.5t-66 90t-24.5 100.5z" />
<glyph unicode="3" horiz-adv-x="1044" vert-adv-y="2234" d="M-49 127q0 53 50 116.5t87 63.5q14 0 14 -14q0 -10 -10 -23q-10 -12 -10 -22q0 -25 47 -41.5t127 -16.5q184 0 350 80t166 160q0 61 -86 87t-240 26q-123 0 -202 -21q-14 0 -15 31q0 45 23.5 103.5t53.5 72.5t134 31q305 47 437.5 109.5t132.5 127.5q0 37 -50.5 58.5 t-142.5 21.5q-152 0 -262.5 -23.5t-110.5 -47.5q0 -12 11.5 -21.5t54.5 -23.5q6 0 12 -7.5t6 -15.5q0 -25 -209 -23q-55 27 -55 95q0 109 151.5 172t379.5 63q324 0 323 -233q0 -53 -16.5 -93t-49 -72t-66.5 -52.5t-162 -55t-361 -84.5q268 -25 350 -91t82 -158 q0 -90 -79 -195t-248 -169.5t-332 -64.5q-133 0 -209 43t-76 107z" />
<glyph unicode="4" horiz-adv-x="874" vert-adv-y="2234" d="M39 453q0 70 84 195.5t239.5 251.5t359.5 236.5t236 110.5q49 0 50 -55q0 -10 -21 -57q33 -29 33 -58q0 -41 -16.5 -76.5t-94.5 -154.5q-141 -213 -190 -324q152 27 174 27q45 0 45 -35q0 -47 -94 -166l-211 -45q-31 -84 -39 -172q27 -23 27 -51q0 -20 -71 -69.5 t-95 -49.5q-47 0 -47 72q0 121 30 237q-162 -16 -227 -16q-53 0 -89 14.5t-59.5 83t-23.5 101.5zM174 459q194 12 350 30q78 160 144.5 257.5t193.5 244.5q84 96 84 113q0 18 -22 18q-33 0 -332 -202.5t-418 -460.5z" />
<glyph unicode="5" horiz-adv-x="874" vert-adv-y="2234" d="M-84 113q0 53 29.5 93t106.5 74.5t157 34.5q12 0 12 -6q0 -8 -16 -14q-57 -20 -92 -41t-35 -33q0 -27 84 -26q133 0 275.5 70.5t219 150.5t76.5 123q0 39 -38 62.5t-107 23.5q-94 0 -217 -35q-90 -27 -119 -27q-25 0 -53.5 47t-42.5 121q61 217 342 479q154 -8 264 -8 q135 0 258 6q-90 -190 -139 -223q-41 -8 -195 -8q-188 0 -223 2q-111 -94 -180 -238q193 63 280 64q119 0 187.5 -67.5t68.5 -200.5q0 -238 -221 -403t-500 -165q-106 0 -144 33t-38 111z" />
<glyph unicode="6" horiz-adv-x="854" vert-adv-y="2234" d="M20 344q0 197 200 445.5t530 408.5l104 -6q66 -4 87.5 -8t21.5 -17q0 -14 -93 -63q-170 -88 -313 -203q-147 -117 -256 -256q-57 -72 -57 -78h2q4 0 24 23q96 98 173 142t159 44q96 0 152.5 -57t56.5 -162q0 -109 -79 -251t-199.5 -236.5t-225.5 -94.5q-115 0 -201 116 t-86 253zM188 252q0 -63 16.5 -89t55.5 -26q57 0 159.5 80t168 180.5t65.5 190.5q0 78 -63 78q-41 0 -121 -50.5t-159 -127t-100.5 -129t-21.5 -107.5z" />
<glyph unicode="7" horiz-adv-x="894" vert-adv-y="2234" d="M150 78q0 135 187 411.5t527 536.5q-135 20 -246 21q-227 0 -356 -86q-27 -16 -29 -17q-10 0 -22 10.5t-12 24.5t40 76.5t73.5 110.5t64.5 60.5t156.5 24t257.5 11.5q80 0 150.5 -5.5t80.5 -5.5q41 -96 41 -168q0 -23 -5 -37t-36 -40q-186 -162 -327.5 -337t-208 -310.5 t-66.5 -206.5q0 -27 18 -27q12 0 43 12l15 -18q-178 -139 -265 -139q-82 0 -81 98z" />
<glyph unicode="8" horiz-adv-x="917" vert-adv-y="2234" d="M102 156q0 72 84 189.5t258 295.5q-147 172 -147 313q0 156 102.5 244t270.5 113.5t293 25.5q98 0 139 -10t41 -41q0 -25 -37 -90.5t-57.5 -80.5t-71.5 -15q18 -31 18 -49q0 -23 -25.5 -51.5t-107.5 -102.5q-147 -133 -239 -233q59 -111 79.5 -163t20.5 -114 q0 -147 -112.5 -266t-276.5 -119q-98 0 -165 43t-67 111zM227 178q0 -66 113 -65q88 0 158.5 73.5t70.5 178.5q0 92 -59 186q-115 -119 -199 -229.5t-84 -143.5zM465 940q0 -73 98 -190q266 233 319.5 282t53.5 58q0 29 -131 28q-162 0 -251 -46t-89 -132z" />
<glyph unicode="9" horiz-adv-x="937" vert-adv-y="2234" d="M158 788q0 119 118.5 249t291.5 225.5t274 95.5q66 0 127 -61.5t61 -110.5q0 -41 -88 -117t-115 -76q-8 0 -8 4q0 14 60 74q33 33 32 53q0 12 -14 13q-23 0 -135.5 -48.5t-223 -134.5t-155.5 -165.5t-45 -126.5q0 -49 53 -50q53 0 175 63.5t192 133.5q102 102 146 137 t81 35q27 0 42 -15.5t15 -29.5q0 -8 -236.5 -390t-325.5 -472t-146 -90q-29 0 -29 39q0 43 44 118.5t97 69.5q191 268 349 520q-168 -141 -265.5 -198.5t-160.5 -57.5q-57 0 -134 104.5t-77 208.5z" />
<glyph unicode=":" horiz-adv-x="681" vert-adv-y="2234" d="M127 47q0 55 65.5 114.5t114.5 59.5q33 0 33 -35q0 -47 -59.5 -118.5t-104.5 -71.5q-49 0 -49 51zM326 485q0 45 61.5 116t112.5 71q23 0 34 -15.5t11 -33.5q0 -47 -61.5 -122t-108.5 -75q-49 0 -49 59z" />
<glyph unicode=";" horiz-adv-x="681" vert-adv-y="2234" d="M121 33q0 45 63.5 111.5t110.5 66.5q39 0 39 -47q0 -37 -43 -114t-88 -118t-66 -41q-8 0 -8 7q0 10 16 28q25 29 37 56q-61 2 -61 51zM324 469q0 47 66.5 118.5t113.5 71.5q41 0 41 -53t-57.5 -125.5t-110.5 -72.5q-23 0 -38 17t-15 44z" />
<glyph unicode="&#x3c;" horiz-adv-x="1366" vert-adv-y="2234" d="M172 557v141l1094 459v-170l-881 -358l881 -361v-172z" />
<glyph unicode="=" horiz-adv-x="1366" vert-adv-y="2234" d="M172 315v158h1094v-158h-1094zM172 786v158h1094v-158h-1094z" />
<glyph unicode="&#x3e;" horiz-adv-x="1366" vert-adv-y="2234" d="M172 96v172l881 359l-881 360v170l1094 -459v-141z" />
<glyph unicode="?" horiz-adv-x="661" vert-adv-y="2234" d="M117 115q0 57 40 130.5t66 73.5q27 0 55.5 -39.5t28.5 -78.5q0 -55 -34.5 -125t-61.5 -70q-23 0 -58.5 32t-35.5 77zM182 1079q0 41 40 122t169 119t213 38t135.5 -53.5t51.5 -145.5q0 -256 -371 -649q-18 -18 -28.5 -47t-10.5 -43l6 -60q0 -16 -10 -25t-21 -9 q-27 0 -55.5 44t-28.5 99q0 74 80 176.5t266 267.5q68 59 86.5 86t18.5 62q0 102 -143 102q-59 0 -169 -25.5t-110 -47.5q0 -12 12 -17q43 -18 55.5 -28.5t12.5 -24.5q0 -12 -10 -12q-6 0 -17 4q-43 16 -98 16q-47 0 -60.5 10.5t-13.5 40.5z" />
<glyph unicode="@" horiz-adv-x="2068" vert-adv-y="2234" d="M178 340q0 254 118 508t340 393t538 139q244 0 441 -101t308 -279.5t111 -383.5q0 -184 -90.5 -361t-232.5 -276.5t-277 -99.5q-74 0 -131.5 31.5t-67.5 140.5q-133 -164 -307 -164q-156 0 -258.5 128t-102.5 319q0 160 74 313.5t194.5 238.5t256.5 85q178 0 294 -183 l33 156h180l-143 -672q-23 -106 -22 -151q0 -41 17 -55.5t52 -14.5q66 0 160 80t157.5 205t63.5 264q0 174 -98 326.5t-265 231.5t-360 79q-238 0 -436.5 -121t-298.5 -328.5t-100 -425.5q0 -340 233.5 -548.5t654.5 -208.5q221 0 402.5 78.5t281.5 222.5h181 q-121 -215 -349.5 -332t-533.5 -117q-475 0 -746.5 245t-271.5 638zM754 324q0 -131 58 -211t159 -80q139 0 249.5 160.5t110.5 341.5q0 129 -63.5 208.5t-171.5 79.5q-139 0 -240.5 -156.5t-101.5 -342.5z" />
<glyph unicode="A" horiz-adv-x="1300" vert-adv-y="2234" d="M-125 -70q0 55 101.5 174t164.5 119q6 0 31 -10l190 203q-147 8 -169.5 16t-22.5 33q0 33 56.5 99.5t105.5 91t192 24.5q-137 -18 -137 -64h70q27 -1 48 -1q42 0 58 3q279 274 479.5 429t417.5 270q33 -41 33 -90q0 -45 -18 -76l-283 -504q82 0 120 -2t43 -6t5 -16 q0 -14 -146 -193l-147 -12q-117 -217 -117 -248q0 -41 43 -41q23 0 174 88l-8 -53l-147 -113q-72 -53 -109 -71.5t-67 -18.5q-39 0 -68 33t-29 84q0 33 29 97.5t123 236.5q-145 -2 -215 -2q-72 0 -199 2q-248 -252 -370.5 -370t-147.5 -131t-47 -13q-37 0 -37 32zM702 639 l324 6q156 268 311 518q-291 -182 -635 -524z" />
<glyph unicode="B" horiz-adv-x="1130" vert-adv-y="2234" d="M43 895q0 33 46 106.5t95 128t80 67.5t176.5 53t276.5 61.5t235 21.5q193 0 285 -68.5t92 -168.5q0 -137 -174 -251t-592 -169l-51 -60q283 -33 417 -96t134 -174q0 -84 -100.5 -172t-261 -147.5t-295.5 -59.5q-156 0 -239 57.5t-83 151.5q0 74 54.5 168t158.5 223 q-150 4 -150 78q0 39 37 52t256 38q221 279 391 279q14 0 15 -6q0 -6 -60 -74l-153 -174q551 68 551 239q0 123 -256 123q-166 0 -355.5 -49t-189.5 -69q0 -8 18 -15q31 -8 31 -24q0 -14 -149.5 -60.5t-202.5 -46.5q-37 0 -37 37zM289 303q0 -41 44 -84t142 -43 q141 0 280.5 67.5t139.5 143.5q0 55 -93 90t-345 70q-117 -137 -142.5 -173t-25.5 -71z" />
<glyph unicode="C" horiz-adv-x="1236" vert-adv-y="2234" d="M106 49q0 182 103.5 386t323 444.5t399.5 349t301 108.5q72 0 114 -54t42 -140q0 -135 -102.5 -304t-284 -341t-254.5 -172q-27 0 -54.5 21.5t-27.5 58.5q0 86 126 220t152 134q8 0 8 -8q0 -10 -12 -29q-10 -23 -10 -29t6 -6q16 0 101 94.5t148.5 203t63.5 173.5 q0 59 -49 60q-90 0 -306 -195t-382 -456t-166 -443q0 -123 56.5 -187.5t158.5 -64.5q283 0 729 446v-65q-272 -301 -472 -432t-374 -131q-150 0 -244 92t-94 266z" />
<glyph unicode="D" horiz-adv-x="1323" vert-adv-y="2234" d="M-41 848q0 117 40 187.5t211 143t314.5 102.5t253.5 30q238 0 377 -128t139 -352q0 -231 -181 -444t-450.5 -320.5t-472.5 -107.5q-84 0 -102 22.5t-18 92.5q0 92 54 208.5t188 330t298 434.5q-133 -14 -318.5 -80t-185.5 -90q0 -6 13 -5q88 16 213 25 q-123 -37 -279 -106q-23 -10 -41 -11q-53 0 -53 68zM207 201q0 -47 112 -47q199 0 408 93t334 236.5t125 294.5q0 137 -105.5 209t-310.5 72q-61 0 -131 -6q8 -45 8 -62q0 -23 -24 -61q-190 -295 -303 -492.5t-113 -236.5z" />
<glyph unicode="E" horiz-adv-x="1259" vert-adv-y="2234" d="M68 96q0 178 199.5 325.5t531.5 209.5q27 6 26 18q0 12 -30 13q-358 0 -446.5 63t-88.5 170q0 121 114.5 236.5t322.5 183t438 67.5q72 0 115.5 -8t63 -23t19.5 -91v-68q0 -47 -16 -53q-166 -74 -322 -172q53 78 150 145q-55 18 -125 18q-127 0 -276.5 -52t-242.5 -118.5 t-93 -111.5q0 -39 93 -56.5t560 -21.5q63 0 63 -45q0 -41 -42 -87t-91 -52q-317 -41 -527 -177.5t-210 -234.5q0 -49 55.5 -75.5t157.5 -26.5q354 0 723 319q0 -141 -44 -224t-152.5 -150.5t-278.5 -115.5t-332 -48q-141 0 -228 71.5t-87 171.5z" />
<glyph unicode="F" horiz-adv-x="1153" vert-adv-y="2234" d="M4 793q0 47 71.5 184t190.5 173t366 81t437 45q113 0 158 -31t45 -104q0 -70 -102.5 -263.5t-229.5 -379.5h154l-133 -191l-156 -6q-205 -260 -415 -436t-275 -176q-23 0 -35 15t-12 30q0 18 54 100t132 131t162 55q102 109 237 271l-301 -15h-21q-31 0 -45 4 q-20 6 -20 33q12 35 28.5 67t26 37t56.5 17l184 45q74 19 103 19h151q127 176 197.5 305t70.5 174q0 31 -20.5 42t-67.5 11q-113 0 -433 -56t-396 -122q94 4 125 4q80 0 80 -18q0 -8 -56 -21q-135 -31 -202 -59q-43 -18 -56 -19q-18 0 -35.5 16.5t-17.5 37.5z" />
<glyph unicode="G" horiz-adv-x="1153" vert-adv-y="2234" d="M133 367q0 170 121 365.5t338 338.5t410.5 213t283.5 70q45 0 74 -35t29 -84q0 -68 -50.5 -115t-167 -111.5t-137.5 -64.5q-6 0 -6 4q0 10 23 29q74 57 96 83.5t29 57.5q-246 -72 -463 -230.5t-329 -326.5t-112 -248q0 -35 21.5 -58.5t54.5 -23.5q39 0 114 41t318.5 242 t290.5 262q53 70 98 70q37 0 61.5 -23.5t24.5 -58.5q0 -16 -102 -201.5t-295 -492.5q107 54 371 249v-53q-254 -219 -498 -379q-88 -121 -191.5 -242.5t-136 -140t-65.5 -18.5q-29 0 -48.5 21.5t-19.5 54.5q0 162 330 356q225 319 381 633q-119 -100 -234.5 -184 t-158.5 -121q-178 -152 -260 -152t-138.5 78t-56.5 195z" />
<glyph unicode="H" horiz-adv-x="1323" vert-adv-y="2234" d="M-113 819q0 39 16.5 97.5t42 93t161 102.5t287 119t274.5 74.5t221 23.5q109 0 140.5 -34.5t31.5 -141.5q0 -92 -101.5 -231.5t-281.5 -333.5q109 20 289 37q182 264 291.5 413.5t129 168t31.5 18.5q16 0 17 -41q0 -39 -7.5 -63.5t-25.5 -51.5l-299 -442q111 -2 221 -31 l-180 -244q-82 10 -197 10q-86 -162 -86 -215q0 -18 8 -43q8 -23 9 -32q0 -29 -61.5 -63t-100.5 -34q-33 0 -33 58q0 115 119 321q-147 -8 -363 -47q-190 -256 -210.5 -301t-53.5 -45q-25 0 -43 24.5t-18 55.5q0 27 10 41l137 199q-29 -6 -57 -7q-55 0 -91 19.5t-36 52.5 q0 49 40 100.5t79 51.5q14 0 39 -13l258 66q428 459 428 545q0 29 -27 47t-68 18q-98 0 -362 -103.5t-270 -121.5q0 -12 16 -16q53 -6 53 -15q0 -8 -35 -26l-215 -115q-55 -25 -67 -25q-59 0 -60 80z" />
<glyph unicode="I" horiz-adv-x="897" vert-adv-y="2234" d="M61 731q0 29 71 155t182.5 231.5t242.5 160.5t193 55q78 0 115.5 -59.5t37.5 -147.5q0 -137 -106.5 -387t-309.5 -565q10 -25 11 -35q0 -12 -15 -35l-73 -120q-12 -20 -25 -21q-10 0 -20 8l-62 45q-10 8 -14 25q0 12 47 90q229 369 344 628t115 322q0 72 -56 72 q-63 0 -191 -86t-205 -183.5t-77 -160.5q0 -18 23 -18q27 0 78 28q10 4 16 4q8 0 8 -8q0 -16 -74.5 -82.5t-113.5 -66.5q-33 0 -87.5 54t-54.5 97z" />
<glyph unicode="J" horiz-adv-x="768" vert-adv-y="2234" d="M-82 -512q0 111 123 272.5t383 343.5q205 393 287 659.5t82 352.5q0 37 -31 37q-70 0 -196 -129t-213 -329.5t-87 -315.5q0 -29 6 -47q49 80 90 105.5t52 27.5q2 0 2 -4q0 -12 -55.5 -80t-87 -112t-73.5 -72.5t-67 -28.5q-31 0 -40 26.5t-9 90.5q0 231 102.5 479 t298 396.5t297.5 148.5q66 0 102 -41t36 -115q0 -61 -19 -129l-74 -244q-51 -174 -100 -282.5t-149 -298.5l204 110v-65l-266 -150q-174 -295 -323.5 -486.5t-202.5 -191.5q-35 0 -53.5 23.5t-18.5 48.5z" />
<glyph unicode="K" horiz-adv-x="1343" vert-adv-y="2234" d="M-4 823q0 10 8 33q12 29 23 70q16 70 28.5 95.5t54.5 65t97 68.5t74 29q8 0 8 -4t-6 -9q-51 -35 -90 -88q283 100 425 142.5t228 42.5q47 0 77.5 -61.5t30.5 -88.5q0 -23 -22 -57l-160 -240q324 160 515.5 264.5t215.5 104.5q16 0 17 -21q0 -20 -68 -111t-113 -91 q-14 0 -36 8q-340 -176 -639 -316l-86 -129l507 -344q104 -70 135 -112.5t31 -108.5q0 -35 -10 -57.5t-27 -22.5q-10 0 -65 36t-139 91l-541 363l-160 -211q0 -29 -11 -47.5t-60.5 -65.5t-78 -64.5t-50.5 -17.5q-35 0 -35 43q0 29 26 64l293 364q-27 45 -26 84q0 41 26.5 76 t83.5 66l148 79q206 273 206 306q0 23 -26 22q-63 0 -319.5 -112.5t-399.5 -188.5q-16 -8 -35 -8q-25 0 -40 15.5t-15 43.5z" />
<glyph unicode="L" horiz-adv-x="1216" vert-adv-y="2234" d="M-96 16q0 18 16 43l47 78q33 53 64.5 83t73.5 43t97.5 20.5t121.5 7.5q309 481 551.5 760.5t353.5 279.5q31 0 51 -20.5t20 -56.5q0 -121 -210 -496l30 -31q-76 -96 -139 -146.5t-94 -50.5q-25 0 -25 43q0 98 142 330q80 129 99 165t19 50q0 18 -16 19 q-39 0 -230.5 -232.5t-447.5 -615.5q123 -12 188.5 -26.5t278.5 -74.5q160 -45 240 -53q-78 -90 -123 -136t-56.5 -54t-37.5 -8q-45 0 -254 51q-299 75 -433 75h-4q-55 0 -86 -12q-158 -67 -195 -67h-1q-41 0 -41 32z" />
<glyph unicode="M" horiz-adv-x="1705" vert-adv-y="2234" d="M-90 844q0 25 13.5 97.5t28.5 103t63 73.5t94.5 73t54.5 30q4 0 4 -4q0 -8 -12 -17q-78 -59 -86 -100q193 115 336 170t192 55q37 0 75 -70.5t38 -117.5q0 -100 -207 -512q301 389 467 516t213 127q33 0 61.5 -39t28.5 -84q0 -84 -342 -649q172 190 313 331.5t301 275.5 t177.5 139t29.5 5q23 0 64 -58.5t41 -78.5q0 -23 -21.5 -50.5t-99.5 -107.5q-197 -211 -318 -428t-121 -331q0 -47 17.5 -65.5t54.5 -18.5q41 0 112 40.5t247 169.5v-69q-344 -322 -478 -322q-74 0 -121 54.5t-47 142.5q0 137 84 289.5t260 345.5q84 92 84 114q0 10 -16 11 q-25 0 -153 -115t-264 -267.5t-423 -508.5q-18 -20 -37 -21q-25 0 -46 50.5t-21 111.5q0 51 20.5 95t112.5 165q182 244 269 397.5t87 206.5q0 27 -18 27q-35 0 -143.5 -105.5t-264 -308t-315.5 -452.5q-55 -94 -78.5 -123t-50.5 -29q-31 0 -63.5 72t-32.5 123q0 14 12 33 q494 655 494 827q0 43 -41 43q-53 0 -301 -154q-233 -145 -295 -145q-33 0 -33 37z" />
<glyph unicode="N" horiz-adv-x="1173" vert-adv-y="2234" d="M-104 862q0 66 67.5 161t175 178t129.5 83q8 0 8 -2t-2 -4q-72 -57 -108 -115q207 104 307 147.5t170 43.5q131 0 131 -105q0 -31 -15.5 -72.5t-63.5 -133t-167 -295.5l-256 -441q420 522 655.5 736t311.5 214q18 0 50 -57t32 -96q0 -70 -28.5 -126t-104.5 -161 q-211 -289 -286 -421t-75 -214q0 -67 68 -67h2q94 0 299 207l2 -78q-117 -121 -211 -202t-155.5 -116t-108.5 -35q-53 0 -84 35t-31 92q0 119 92.5 304.5t284.5 463.5q88 125 88 162q0 20 -22 21q-72 0 -294 -231.5t-528 -651.5q-29 -41 -53 -41q-25 0 -63.5 39t-38.5 57 q0 23 55 105q170 254 308 511t138 306q0 18 -14 28.5t-26 10.5q-41 0 -195 -66.5t-305 -156.5q-88 -55 -117 -56q-23 0 -22 39z" />
<glyph unicode="O" horiz-adv-x="1173" vert-adv-y="2234" d="M80 371q0 199 140 412.5t346 361t331 147.5q70 0 108.5 -43t71.5 -141q-170 -4 -305 -82q104 31 168 31q82 0 131 -53.5t49 -145.5q0 -137 -100 -359.5t-279.5 -374t-365.5 -151.5q-131 0 -213 107.5t-82 290.5zM219 223q0 -149 137 -149h2q104 0 259 135t263.5 321.5 t108.5 325.5q0 111 -88 111q-106 0 -240.5 -101.5t-240.5 -281.5q18 94 100 239q-123 -137 -212 -322.5t-89 -277.5z" />
<glyph unicode="P" horiz-adv-x="1280" vert-adv-y="2234" d="M61 885q0 18 49.5 110t104.5 183q348 125 619 125q274 0 397 -100.5t123 -289.5q0 -170 -98.5 -321.5t-291 -242.5t-444.5 -91q-78 0 -160 8l-90 -164q14 -27 15 -45q0 -20 -26 -59t-60.5 -88t-51 -63.5t-28.5 -14.5q-25 0 -35 14.5t-10 51.5q0 82 174 393 q-98 41 -98 108q0 55 69.5 108.5t210.5 86.5l305 455q-254 -6 -655 -179q-18 4 -19 15zM477 471q82 -4 141 -4q133 0 242 31.5t200 97.5t138 145.5t47 143.5q0 92 -101.5 129t-350.5 37q2 -14 2 -27q0 -51 -56 -137l-174 -273l131 15q16 2 17 -13q0 -14 -27 -20l-151 -29z " />
<glyph unicode="Q" horiz-adv-x="1323" vert-adv-y="2234" d="M59 14q0 41 31 100.5t59.5 85t85 39t154.5 15.5q311 172 500.5 333t266.5 275.5t77 161.5q0 41 -66 41q-272 0 -712 -289q68 6 133 6q76 0 76 -28q0 -16 -23 -19q-119 -20 -207 -65q-78 -39 -106 -39h-1q-51 0 -51 67v88q0 113 60.5 174.5t323 180.5t446.5 119 q133 0 200.5 -63.5t67.5 -164.5q0 -326 -850 -788q63 -8 205 -37q221 -47 330 -47q84 0 190 26q-70 -156 -108.5 -213t-120.5 -57q-88 0 -168 9t-262 46q-166 33 -240 45q-55 8 -105 8q-17 0 -34 -1q-80 -53 -111 -54q-41 0 -41 45z" />
<glyph unicode="R" horiz-adv-x="1343" vert-adv-y="2234" d="M74 -51q0 23 61.5 128t165.5 245q-51 18 -67.5 28t-16.5 25q0 35 39 92t72.5 68.5t156.5 25.5q104 147 316 424q-246 -39 -327 -57.5t-81 -34.5q0 -14 41 -14q106 0 107 -19q0 -6 -14.5 -8t-166 -8t-153.5 -6q-20 0 -34.5 14t-14.5 33q0 51 70.5 153.5t293.5 156.5 t449 54q246 0 408.5 -67.5t162.5 -225.5q0 -84 -45 -169t-133 -148.5t-337 -113.5t-540 -64q297 -111 472.5 -187.5t238 -115.5t69.5 -68t7 -94q0 -55 -7 -94t-34 -39q-25 0 -103 47t-354 182l-377 184q-143 -195 -161 -260q-12 -47 -54.5 -76.5t-70.5 -29.5q-39 0 -39 39z M621 584q477 90 637.5 164.5t160.5 146.5q0 55 -102.5 84t-255.5 29q-99 -1 -197 -13q4 -14 4 -26q0 -53 -69.5 -152.5t-177.5 -232.5z" />
<glyph unicode="S" horiz-adv-x="1323" vert-adv-y="2234" d="M20 16q0 61 58.5 129t136.5 68q51 0 51 -10q0 -4 -24 -13q-35 -14 -45.5 -19t-10.5 -15q0 -20 179 -21q231 0 341.5 14.5t193.5 49.5t151 90q-74 135 -318 176q-139 25 -256 73t-143.5 78.5t-26.5 63.5q0 150 72 269.5t289 186t471 66.5q106 0 168.5 -15.5t84 -32.5 t21.5 -50q0 -61 -17.5 -103.5t-41 -56.5t-88.5 -39q-61 -20 -91 -34.5t-98 -57.5q-29 -18 -41 -22q-10 0 -10 8q0 18 33 50t90 62q55 29 55 39t-76 11q-272 0 -468.5 -72t-196.5 -158q0 -16 11 -31.5t26 -19.5l229 -68q115 -33 207 -75.5t145.5 -85.5t76 -85t22.5 -90 q0 -88 -71 -186t-278.5 -152.5t-427.5 -54.5q-180 0 -281.5 35t-101.5 98z" />
<glyph unicode="T" horiz-adv-x="1173" vert-adv-y="2234" d="M123 891q0 53 33.5 164.5t128 166t301.5 87t366 32.5q96 0 157.5 -9t94.5 -23.5t44.5 -30.5t29.5 -70l31 -92q10 -31 10 -49q0 -45 -78 -145q-74 -92 -224.5 -352t-199.5 -371l33 -25q-74 -150 -125 -213t-96 -63q-29 0 -48.5 22.5t-19.5 59.5q0 113 163 390t472 668 q-78 14 -180 15q-145 0 -313 -28t-308.5 -73t-140.5 -65q0 -8 31 -13q137 -16 137 -38q0 -10 -86 -11q-162 0 -187.5 9.5t-25.5 56.5z" />
<glyph unicode="U" horiz-adv-x="1280" vert-adv-y="2234" d="M-59 784q0 53 79.5 202t317 247t401.5 98q84 0 108.5 -29.5t24.5 -84.5q0 -47 -17 -111t-93 -174.5t-217 -292.5q-59 -78 -133 -188.5t-82 -130t-8 -35.5q0 -35 36 -35q16 0 37 9t156 128t262 252t315 350q166 190 195 218t49 28q23 0 39 -33t16 -80q0 -53 -23.5 -95 t-156.5 -239q-137 -201 -218 -358.5t-81 -224.5q0 -74 66 -74q72 0 311 188l-2 -69q-281 -287 -412 -287q-155 0 -155 148q0 118 98 298q98 181 287 451q-360 -395 -572.5 -601t-251 -230.5t-81.5 -24.5q-61 0 -99.5 47t-38.5 129q0 59 46 151.5t121 194t276 340.5 q118 140 118 171q0 15 -16 16q-74 0 -369 -187q-80 -51 -165.5 -86t-120.5 -35q-47 0 -47 39z" />
<glyph unicode="V" horiz-adv-x="874" vert-adv-y="2234" d="M-233 649q0 127 49 208t204.5 186.5t328.5 180t249 74.5q41 0 83 -56t42 -112q0 -16 -90 -153q-129 -190 -259 -460.5t-130 -356.5q0 -45 53 -84q196 137 530 727q-8 25 -8 49q0 37 20.5 79t72 111.5t65.5 80t29 10.5q37 0 36 -46q0 -72 -81.5 -248.5t-246.5 -424.5 t-280 -386.5t-166 -138.5q-61 0 -121.5 89.5t-60.5 189.5q0 106 94 318t252 458q51 78 51 92q0 10 -20 11q-45 0 -117 -37t-204 -135.5t-153.5 -120t-21.5 -27.5q0 -12 19 -12q4 0 32 4q70 8 95 8q45 0 45 -18q0 -8 -11.5 -15.5t-62.5 -19.5q-96 -25 -132 -37t-79 -33 q-70 -29 -78 -29q-18 0 -23 19.5t-5 54.5z" />
<glyph unicode="W" horiz-adv-x="1429" vert-adv-y="2234" d="M-78 768q0 27 23.5 120t42 129t75 73.5t185.5 105.5l10 -37q188 78 332 78q96 0 148.5 -38t52.5 -173q0 -72 -20.5 -121t-121 -190.5t-170.5 -222.5q-205 -238 -205 -273q0 -6 9.5 -13t19.5 -7q31 0 99.5 59t261 269t317.5 374q111 143 168 184t74 41q16 0 40.5 -47 t24.5 -73q0 -16 -166 -281q-131 -207 -205.5 -351.5t-74.5 -191.5q0 -41 30 -41q78 0 241 184.5t327 520.5q-20 72 -21 82q0 16 60.5 98t76.5 82q18 0 34 -27.5t16 -58.5q0 -80 -84 -291t-210 -401.5t-257 -291.5t-183 -101q-45 0 -108.5 51t-63.5 157q0 92 54.5 220.5 t134.5 273.5q-250 -303 -427 -489.5t-257 -186.5q-49 0 -83 57.5t-34 141.5q0 145 236 395q188 203 253.5 288t65.5 116q0 51 -80 51q-61 0 -162.5 -42t-285.5 -147q-150 -84 -166 -84q-27 0 -27 29z" />
<glyph unicode="X" horiz-adv-x="1236" vert-adv-y="2234" d="M68 721q0 57 39.5 156.5t146 181.5t281 150.5t309.5 68.5q96 0 96 -84l-8 -135q-4 -82 -8 -232l186 203q72 82 118 129t68 47q35 0 35 -30q0 -41 -82 -187q-31 -14 -73 -24l-267 -303l-32 -543q0 -53 41 -53q29 0 68.5 21.5t148.5 92.5q6 4 12 4q18 0 18 -18 q0 -27 -78.5 -116t-155.5 -134t-132 -45q-53 0 -69.5 39t-16.5 186q0 14 8 346q-184 -195 -313 -358q-102 -133 -170 -174t-95 -41q-33 0 -32 47q0 70 74.5 169t209.5 159l330 366l10 449q-193 -29 -350.5 -129.5t-157.5 -120.5q0 -10 29 -10l84 6q12 0 12 -6 q0 -4 -12 -12.5t-118.5 -45t-137.5 -36.5q-16 0 -16 16z" />
<glyph unicode="Y" horiz-adv-x="1130" vert-adv-y="2234" d="M-131 649q0 14 4 47l18 117q12 84 57.5 132t208 162t280.5 167t198 53q94 0 94 -82q0 -45 -31 -104l-98 -193q-106 -207 -148 -287.5t-100.5 -181t-63.5 -114t-5 -25.5q0 -14 13 -30.5t30 -16.5q16 0 35.5 11t108.5 96t201.5 221.5t215.5 275.5q96 125 124.5 153.5 t43.5 28.5q14 0 39 -30l24 -31q27 -35 27 -55q0 -18 -74 -148q-264 -430 -420 -872q250 188 307.5 222t81.5 34q20 0 21 -19q0 -27 -39 -76t-154 -170q-141 -147 -187 -192t-159 -213q-31 -51 -71 -51q-33 0 -51.5 30.5t-18.5 67.5q0 39 39 156.5t104.5 269.5t135 285 t204.5 366l101 174q-152 -205 -316 -397t-274.5 -301t-146 -135.5t-60.5 -26.5q-33 0 -69 30t-36 91q0 25 9.5 58.5t102.5 217t142 263.5q221 356 222 399q0 31 -35 31q-33 0 -78 -32t-231 -181q-102 -80 -203 -146.5t-113 -66.5q-10 0 -10 18z" />
<glyph unicode="Z" horiz-adv-x="1110" vert-adv-y="2234" d="M96 -477q0 88 202 287.5t572 388.5q-8 68 -35.5 95.5t-101.5 27.5q-63 0 -208.5 -63.5t-245.5 -147.5q-45 -35 -60 -35q-23 0 -22 37q0 49 36.5 129t103 129t175.5 98q238 115 380 236.5t142 175.5q0 39 -84 39q-137 0 -353 -95.5t-497 -310.5q8 178 36 265t80 138.5 t203.5 135.5t281.5 129t235 45q123 0 194.5 -62.5t71.5 -175.5q0 -125 -95 -232.5t-382 -250.5q133 -2 193.5 -58.5t76.5 -189.5l131 55v-75l-137 -64q-49 -213 -200.5 -388t-323.5 -276.5t-258 -101.5q-25 1 -45 19l-35 32q-31 31 -31 64zM244 -436q0 -18 28 -19 q102 0 319.5 194.5t252.5 356.5q-221 -96 -410.5 -287.5t-189.5 -244.5z" />
<glyph unicode="[" horiz-adv-x="598" vert-adv-y="2234" d="M-127 -393q0 115 83 287t460 778q254 420 393 688q68 -8 154 -8q88 0 206 8q-66 -158 -101.5 -197t-86.5 -39q-45 0 -150 27q-195 -350 -302 -518t-243 -412t-182 -414q102 37 181 37q80 0 157 -43q-121 -172 -157 -315q-61 43 -148 43q-68 0 -155 -25q-43 -12 -54 -12 q-25 0 -40 32t-15 83z" />
<glyph unicode="\" horiz-adv-x="575" vert-adv-y="2234" d="M4 1380h146l423 -1515h-145z" />
<glyph unicode="]" horiz-adv-x="747" vert-adv-y="2234" d="M-340 -502q49 123 89 179.5t108 56.5q45 0 143 -25q125 219 274 473l265 451q113 195 144.5 271.5t45.5 148.5q-111 -39 -176 -39q-70 0 -164 45q111 168 156 313q57 -43 155 -43q70 0 129 23q41 14 66 14q63 0 63 -106q0 -88 -50 -218.5t-148 -293.5l-350 -580 q-254 -416 -387 -666q-117 6 -195 6q-100 0 -168 -10z" />
<glyph unicode="^" horiz-adv-x="960" vert-adv-y="2234" d="M53 530l355 801h143l356 -801h-182l-248 598l-239 -598h-185z" />
<glyph unicode="_" vert-adv-y="2234" d="M-12 -154h1048v-102h-1048v102z" />
<glyph unicode="`" horiz-adv-x="681" vert-adv-y="2234" d="M319 1194q0 43 64 43q61 0 93 -41t63.5 -122t31.5 -120q0 -43 -41 -43q-43 0 -127 120t-84 163z" />
<glyph unicode="a" horiz-adv-x="831" vert-adv-y="2234" d="M90 258q0 76 47 147.5t189.5 175t242 144.5t168.5 41q25 0 49.5 -34t24.5 -60q0 -27 -61 -45q41 -80 41 -109q0 -25 -50 -90q-57 -76 -71.5 -103.5t-14.5 -68.5q0 -76 60 -76q78 0 227 133v-61q-252 -281 -362 -281q-43 0 -57.5 28t-14.5 81q0 74 57 221 q-158 -176 -224.5 -237.5t-102.5 -61.5q-47 0 -97.5 91t-50.5 165zM217 231q0 -71 40 -71h1q35 0 139 82.5t301 361.5q-231 -104 -356 -191t-125 -182z" />
<glyph unicode="b" horiz-adv-x="661" vert-adv-y="2234" d="M43 236q0 219 157.5 473t349 435t257.5 181q39 0 39 -61q0 -260 -672 -914q-2 -33 -2 -61q0 -147 74 -148q29 0 60.5 27t88.5 86q-23 37 -22 78q0 84 93 181t138 97q39 0 39 -57q0 -92 -92 -254q29 -29 61 -29q42 0 103 43v-65q-104 -66 -172 -66q-29 0 -62 11 q-88 -109 -152.5 -164.5t-127.5 -55.5q-76 0 -117 71t-41 192zM207 463q104 94 247.5 278.5t209 292t65.5 137.5q0 10 -8 11q-27 0 -116 -95.5t-225 -298t-173 -325.5z" />
<glyph unicode="c" horiz-adv-x="598" vert-adv-y="2234" d="M35 268q0 61 20.5 104.5t117.5 143.5t193.5 159.5t141.5 59.5q37 0 60.5 -22.5t23.5 -59.5q0 -63 -66.5 -153t-103.5 -90q-27 0 -27 28l2 23q0 20 -10 20t-94 -60.5t-112.5 -95t-28.5 -69.5q0 -59 35.5 -95t97.5 -36q68 0 155.5 47t208.5 141v-67q-80 -82 -200.5 -183.5 t-210.5 -101.5t-146.5 98.5t-56.5 208.5z" />
<glyph unicode="d" horiz-adv-x="854" vert-adv-y="2234" d="M6 285q0 88 88 186t211 168t189 70q47 0 96 -62q115 242 206 387.5t124 145.5q23 0 41 -20.5t18 -49.5q0 -37 -40 -111.5t-185 -314.5q-94 -156 -137.5 -261.5t-43.5 -189.5q0 -90 58 -90q37 0 94 43t145 129v-73q-217 -279 -333 -279q-88 0 -88 143v7q0 93 24 200 q-115 -133 -209 -221t-121 -88q-39 0 -88 90t-49 191zM137 211q0 -39 35 -39q10 0 21.5 6t89.5 72l143 123q63 57 86 93t35 91q-100 -35 -220 -102.5t-139.5 -91t-35 -72.5t-15.5 -80z" />
<glyph unicode="e" horiz-adv-x="598" vert-adv-y="2234" d="M8 242q0 104 77 218.5t200 193.5t213 79q49 0 77.5 -22.5t28.5 -63.5q0 -192 -428 -368v-25q0 -59 27.5 -92t77.5 -33q76 0 152.5 48t180.5 138v-61q-233 -281 -413 -281q-90 0 -141.5 73t-51.5 196zM186 344q135 55 207 136t72 120q0 23 -23 23q-45 0 -140.5 -85 t-115.5 -194z" />
<glyph unicode="f" horiz-adv-x="555" vert-adv-y="2234" d="M-76 -289q0 84 30 186.5t97 266.5q-49 66 -49 127q0 47 22.5 74.5t77.5 52.5q45 76 152 196q88 217 176 379t115.5 199t44.5 37q18 0 30.5 -26.5t12.5 -69.5q0 -76 -39 -162t-211 -371q-129 -215 -152 -262q100 -82 140 -162q59 18 202 139v-69q-111 -113 -176 -142 q0 -131 -23.5 -217t-90 -183t-138 -156.5t-116.5 -59.5q-39 0 -72 65.5t-33 157.5zM49 -213q0 -68 18.5 -105.5t45.5 -37.5t78 68.5t69 180.5q14 84 14 140q0 19 -2 35q-11 -1 -21 -1q-66 0 -126 33q-76 -172 -76 -313z" />
<glyph unicode="g" horiz-adv-x="788" vert-adv-y="2234" d="M23 264q0 164 221 328t340 164q63 0 63 -47q0 -31 -37 -66t-102 -61q-129 -51 -241.5 -160t-112.5 -193q0 -57 49 -57q51 0 149.5 89t167.5 175q72 92 114 130t75 38q43 0 43 -53q0 -35 -27 -106.5t-139 -307.5l241 176v-65l-331 -273q-137 -236 -254 -359.5t-172 -123.5 q-31 0 -31 39q0 76 83 199t292 282q109 223 143 312q-274 -297 -397 -297q-51 0 -94 81.5t-43 155.5z" />
<glyph unicode="h" horiz-adv-x="747" vert-adv-y="2234" d="M0 219q0 154 92 296t230.5 339t257 333t157.5 136q8 0 43 -8t35 -33q0 -57 -235.5 -378.5t-440.5 -547.5v-120q170 195 308.5 315.5t189.5 120.5q27 0 54.5 -32t27.5 -60q0 -14 -8 -25q-137 -170 -171 -225.5t-34 -96.5q0 -47 45 -47q47 0 213 129v-63 q-254 -260 -342 -260q-78 0 -78 92q0 72 45 167t143 234q-61 -33 -125.5 -94t-207.5 -241q-45 -55 -72 -89t-49 -34q-78 0 -78 192z" />
<glyph unicode="i" horiz-adv-x="468" vert-adv-y="2234" d="M47 248q0 139 116 290.5t212 151.5q61 0 61 -47q0 -16 -30.5 -81.5t-122.5 -158.5q-68 -68 -82.5 -90t-14.5 -55q0 -37 27 -62.5t70 -25.5q47 0 105 35.5t144 109.5v-73q-195 -252 -329 -252q-76 0 -116 86t-40 172zM395 831q0 45 43 97.5t86 52.5q31 0 50.5 -19.5 t19.5 -50.5q0 -45 -40 -96t-91 -51q-31 0 -49.5 19.5t-18.5 47.5z" />
<glyph unicode="j" horiz-adv-x="575" vert-adv-y="2234" d="M-72 -420q0 104 70 205.5t190 210.5q115 225 173.5 349t58.5 163q0 23 -21 22q-6 0 -149 -65q-143 -63 -172 -64q-20 0 -21 23q1 19 19 70l28 79l185 84q168 78 239 78q57 0 58 -53q0 -25 -31 -100.5t-221 -468.5q141 94 264 204l2 -71q-186 -160 -356 -330 q-94 -186 -172 -287.5t-117 -101.5q-27 0 -27 53zM504 864q0 39 39 105.5t53 78t61 11.5q59 0 60 -47q0 -33 -29 -105.5t-51.5 -87t-50.5 -14.5q-33 0 -57.5 17.5t-24.5 41.5z" />
<glyph unicode="k" horiz-adv-x="747" vert-adv-y="2234" d="M-8 160q0 156 68.5 305t244.5 372.5t279.5 323t160.5 99.5q47 0 48 -43q0 -76 -693 -893v-86q233 250 368.5 364.5t211.5 114.5q29 0 47 -34t18 -87q0 -102 -90 -187t-252 -186q55 -86 111 -86q41 0 87 31.5t169 146.5v-67q-113 -135 -190.5 -200.5t-128.5 -65.5 q-74 0 -123 64.5t-107 186.5q-72 -88 -115 -148t-63 -60q-51 0 -51 135zM281 301q37 0 94 -37q109 74 170 157t61 124q0 16 -14 16q-39 0 -129 -70.5t-182 -189.5z" />
<glyph unicode="l" horiz-adv-x="468" vert-adv-y="2234" d="M43 242q0 193 130 451.5t252 384.5t171 126q33 0 33 -82q0 -141 -113 -342.5t-315 -412.5q-10 -43 -11 -82q0 -66 28 -104t77 -38q29 0 67 29t173 154v-74q-209 -276 -340 -277q-74 0 -113 80t-39 187zM236 506q119 123 201.5 273.5t82.5 207.5q0 18 -16 19 q-39 0 -132 -157t-136 -343z" />
<glyph unicode="m" horiz-adv-x="1130" vert-adv-y="2234" d="M0 240q0 61 20.5 109t78 132t100.5 121t77 37q25 0 50.5 -9t25.5 -32q0 -49 -129 -170q-27 -25 -55.5 -69t-28.5 -68q0 -23 21 -23q16 0 86 70q201 205 286.5 274.5t139.5 69.5q29 0 47 -19.5t18 -52.5q0 -88 -264 -432q242 213 384 346t163 133q18 0 41.5 -45t23.5 -80 q0 -23 -65 -90q-88 -100 -106.5 -130.5t-18.5 -65.5q0 -29 16.5 -46.5t44.5 -17.5q29 0 80 39t117 98v-71q-176 -164 -252 -212t-117 -48q-33 0 -52 23.5t-19 62.5q0 27 8 58.5t63.5 132t116.5 196.5q-217 -178 -389 -385q-49 -61 -104 -62q-51 0 -52 74q0 29 31 92.5 t119 212.5q6 12 6 23q0 23 -23 22q-12 0 -39.5 -22.5t-118.5 -122.5t-138 -166q-41 -59 -58.5 -79.5t-38.5 -20.5q-35 0 -65.5 63.5t-30.5 149.5z" />
<glyph unicode="n" horiz-adv-x="747" vert-adv-y="2234" d="M18 252q0 55 13.5 91t75 126t103.5 128t93 38q29 0 46.5 -13.5t17.5 -31.5t-17 -37l-35 -39q-157 -175 -157 -226q0 -30 18 -30q14 0 47 39q197 231 316.5 315t158.5 84q16 0 31.5 -49t15.5 -84q0 -20 -43 -67q-82 -88 -129 -162t-47 -111q0 -43 35 -43q49 0 221 139v-69 q-115 -119 -202.5 -191.5t-143.5 -72.5q-39 0 -58.5 30.5t-19.5 77.5t38 126t136 239q-131 -70 -321 -326q-57 -72 -72.5 -86t-34.5 -14q-37 0 -61.5 67.5t-24.5 151.5z" />
<glyph unicode="o" horiz-adv-x="641" vert-adv-y="2234" d="M6 281q0 88 72 193.5t181.5 176t193.5 70.5q39 0 66.5 -15.5t27.5 -39.5q0 -23 -23 -48q41 -10 53.5 -29.5t12.5 -60.5q0 -119 -84 -262q6 -4 11 -9l7 -7t0 -2q4 -1 10 -2q39 0 125 71v-67q-55 -52 -101 -76q-39 -20 -99 -21q-10 0 -21 1q-129 -154 -229 -154 q-84 0 -143.5 81t-59.5 200zM131 203q0 -27 21.5 -46.5t56.5 -19.5q70 0 158 74q-18 41 -19 86q1 103 105 283q-96 -55 -190.5 -125t-113 -151t-18.5 -101z" />
<glyph unicode="p" horiz-adv-x="831" vert-adv-y="2234" d="M-135 -324q0 147 176 396q59 80 167.5 281.5t143.5 279.5q-237 -287 -348 -402v70q170 184 402 500q74 96 118.5 119.5t87.5 23.5q45 0 45 -26q0 -18 -27.5 -60.5t-70.5 -85.5q-94 -88 -235 -356q229 186 292.5 223t116.5 37q31 0 41 -9.5t10 -37.5q0 -100 -68.5 -206 t-244.5 -265q35 -12 68 -13q117 0 315 177v-72q-86 -80 -204 -170t-199 -90q-63 0 -179 51q-20 -8 -39 -8q-27 0 -79 28q-35 -66 -74 -165q-115 -301 -172 -302q-43 0 -43 82zM242 203q59 8 82 8q39 0 86 -29q196 204 196 288q0 38 -37 38q-49 0 -139 -81t-188 -224z" />
<glyph unicode="q" horiz-adv-x="768" vert-adv-y="2234" d="M16 272q0 55 23.5 101.5t98.5 121t174.5 134t205 90.5t182.5 31q57 0 58 -72q0 -27 -15 -47q35 -59 35 -78q0 -20 -233 -367l47 -30q127 82 209 166v-72q-72 -84 -162 -172q8 -39 8 -53q0 -90 -89 -219.5t-212 -230.5t-180 -101q-70 0 -70 131q0 61 125 248.5t367 515.5 l-191 -185q-84 -84 -125 -114.5t-64.5 -42t-43.5 -11.5q-57 0 -102.5 83t-45.5 173zM133 213q0 -29 31 -29q82 0 211 109.5t220 209t91 113.5q0 8 -8 9q-35 0 -158 -54.5t-232.5 -131.5t-132 -142.5t-22.5 -83.5zM244 -340q0 -12 14 -12q61 0 174 128t119 259q-14 -2 -29 -2 q-38 0 -65 20q-70 -94 -141.5 -232t-71.5 -161z" />
<glyph unicode="r" horiz-adv-x="598" vert-adv-y="2234" d="M6 238v65q55 66 82 109q-61 16 -61 75q0 68 80.5 165.5t125.5 97.5q20 0 25 -19q0 -16 -31 -69q193 32 256 32h4q25 0 35 -8t21.5 -34.5t11.5 -55.5q0 -31 -12.5 -50.5t-69.5 -80.5q-51 -55 -88 -122t-37 -103q0 -47 58 -47q61 0 212 124v-67q-80 -88 -170 -167t-149 -79 q-47 0 -72.5 45t-25.5 105q0 61 47 152t135 194q-96 -23 -197 -37q-61 -121 -180 -225z" />
<glyph unicode="s" horiz-adv-x="638" vert-adv-y="2234" d="M12 311q272 289 355 381q20 123 106 123q20 0 45 -12l6 -19q-4 -12 -4 -28q0 -33 15 -76q31 -98 30 -166q0 -190 -264 -356q27 -8 53 -8q111 0 305 167v-67q-158 -150 -249 -202t-162 -52q-80 0 -150.5 65.5t-78 121.5t-7.5 128zM102 317q53 -10 77 -30.5t67 -89.5 q63 27 102 73.5t39 137.5q0 65 -20 178q-72 -80 -265 -269z" />
<glyph unicode="t" horiz-adv-x="512" vert-adv-y="2234" d="M6 238v69q98 82 254 309q-34 2 -62 2q-64 0 -89 -10q-25 -8 -31 -8t-6 12q0 31 53 111t104.5 95.5t180.5 15.5q49 90 94 132t100 42t55 -25q0 -10 -43 -65q-37 -43 -65 -89q76 -6 102 -12q-59 -106 -143 -217l-133 10q-96 -154 -131 -237.5t-35 -157.5q0 -63 55 -63 q63 0 264 165v-67q-270 -293 -399 -293q-49 0 -74.5 36t-25.5 85q0 84 71 246q-53 -43 -96 -86z" />
<glyph unicode="u" horiz-adv-x="788" vert-adv-y="2234" d="M12 262q0 68 29 127.5t119 168t114.5 119.5t69.5 11q37 0 62.5 -8t25.5 -21q0 -23 -62.5 -107.5t-213.5 -201.5q-18 -51 -19 -86q0 -47 31 -47q10 0 24.5 7t106.5 87l127 111q35 29 88 98q57 74 116.5 137.5t81 77t42.5 13.5q39 0 39 -64q0 -41 -23 -80q-2 -2 -10 -16 q-23 -37 -39 -60q-82 -113 -121 -179t-39 -109q0 -51 41 -52q33 0 78 26t139 103v-67q-147 -141 -222 -198.5t-130 -57.5q-80 0 -80 100q1 66 107 289q-150 -201 -227 -277.5t-117 -76.5q-55 0 -96.5 65.5t-41.5 167.5z" />
<glyph unicode="v" horiz-adv-x="661" vert-adv-y="2234" d="M0 248q0 72 42 155.5t103.5 157.5t85 88.5t58.5 14.5q33 0 56.5 -11.5t23.5 -25.5q0 -47 -64 -142.5t-158 -171.5l-18 -84q-4 -20 -4 -34q0 -55 45 -56q41 0 209 168q0 90 97 226.5t142 136.5t46 -58q0 -47 -33 -128t-117 -187q25 -45 51 -45q39 0 115 63v-67 q-55 -45 -89 -60.5t-83 -15.5q-20 0 -72 27q-119 -125 -177 -170t-93 -45q-70 0 -118 79.5t-48 184.5z" />
<glyph unicode="w" horiz-adv-x="1003" vert-adv-y="2234" d="M18 252q0 68 33 133.5t115 169.5t129 138t72 34t57.5 -17.5t32.5 -29.5q0 -57 -75 -155.5t-210 -217.5q-22 -71 -22 -109q0 -17 8 -29.5t20 -12.5q41 0 162 133t303 383q8 10 31 10q25 0 45 -12.5t20 -28.5q0 -10 -53 -117q-129 -266 -129 -334q0 -39 35 -38 q43 0 153 149q-4 14 -4 31q0 55 40 133t98.5 138.5t89.5 60.5q35 0 35 -84q0 -127 -115 -273q39 -41 67 -41q33 0 86 53v-71q-78 -82 -137 -82q-33 0 -52 8t-50 31q-184 -221 -281 -221q-80 0 -80 104q0 55 21 180q-158 -186 -207 -227t-80 -41q-49 0 -103.5 73.5 t-54.5 178.5z" />
<glyph unicode="x" horiz-adv-x="598" vert-adv-y="2234" d="M-18 14q0 31 40.5 103.5t65.5 72.5q8 0 14 -4l111 129v236q-61 -14 -141 -88q-37 -35 -47 -35t-11 29q0 47 124 174t167 127q25 0 38 -24.5t13 -104.5q0 -59 -6 -156q221 236 262 236q27 0 27 -33q0 -35 -53.5 -102.5t-71.5 -67.5q-27 0 -39 8l-127 -162 q0 -61 11.5 -117.5t54.5 -56.5q29 0 77 37t121 104v-69q-205 -283 -290 -283q-49 0 -73 51.5t-32 176.5q-190 -209 -219 -209q-16 0 -16 28z" />
<glyph unicode="y" horiz-adv-x="768" vert-adv-y="2234" d="M4 260q0 66 27.5 121t102.5 147.5t136.5 145.5t87.5 53q27 0 52.5 -28.5t25.5 -57.5q0 -31 -69.5 -116t-210.5 -206l-19 -55q-6 -23 -6 -35q0 -20 25 -20q37 0 186.5 111.5t302.5 300.5q53 63 82 63q20 0 31.5 -27.5t11.5 -54.5q0 -41 -25 -76q-242 -354 -354 -575 q184 186 397 366v-67q-215 -221 -483 -574q-66 -88 -83 -108.5t-25 -20.5q-18 0 -36 38t-18 81q0 25 20.5 71t101.5 188t212 351l-178 -151q-125 -111 -170 -111q-37 0 -81 88t-44 158z" />
<glyph unicode="z" horiz-adv-x="618" vert-adv-y="2234" d="M-117 -422q0 104 96.5 211t305.5 246q-6 57 -25.5 77.5t-91.5 45.5q-53 18 -53 53q0 37 374 299q-121 -25 -294 -47q-95 -154 -177 -236v74q53 57 113 162q-55 8 -55 45q0 49 80 128t125 79q33 0 32 -27q0 -10 -6 -14q-4 -2 -8 -17q0 -10 16 -10q51 0 125 21 q82 20 105 20q10 0 19 -13t20.5 -81t11.5 -78q0 -14 -14.5 -27.5t-67.5 -48.5q-119 -76 -233 -168q92 -37 120 -151l250 196v-67l-252 -203q-12 -115 -91 -236.5t-195.5 -219t-173.5 -97.5q-55 0 -56 84zM-29 -358q0 -23 21 -23q57 0 150 91.5t132 230.5 q-113 -80 -208 -179.5t-95 -119.5z" />
<glyph unicode="{" horiz-adv-x="854" vert-adv-y="2234" d="M217 305v164q88 2 136 48t60.5 127t12.5 341q0 182 65.5 273.5t249.5 91.5h56v-158h-31q-109 0 -140.5 -39t-31.5 -168v-145q0 -193 -43 -296.5t-168 -156.5q106 -47 158.5 -140t52.5 -310v-148q0 -123 30.5 -164t141.5 -41h31v-157h-56q-86 0 -146 20.5t-98 64.5 t-54.5 110.5t-16.5 135.5v121q0 272 -45 343t-164 83z" />
<glyph unicode="|" horiz-adv-x="1110" vert-adv-y="2234" d="M530 -514v1894h160v-1894h-160z" />
<glyph unicode="}" horiz-adv-x="854" vert-adv-y="2234" d="M168 -416q94 -2 135 14.5t54.5 58.5t13.5 132v148q0 219 51 313t158 137q-121 55 -165 152.5t-44 300.5v145q0 92 -13.5 133t-55.5 57.5t-134 16.5v158h55q193 0 254.5 -96.5t61.5 -268.5q0 -240 11 -328t57 -137t141 -51v-164q-98 -2 -148.5 -63.5t-54.5 -200.5l-6 -250 q-2 -201 -74 -283.5t-240 -82.5q-27 0 -57 2v157z" />
<glyph unicode="~" horiz-adv-x="1366" vert-adv-y="2234" d="M174 467q8 158 78 241t180 83q74 0 179.5 -37t308.5 -125q51 -23 102 -23q76 0 125 45t59 140h58q-6 -160 -84 -242t-189 -82q-57 0 -126.5 23.5t-172.5 66.5q-131 55 -183 72.5t-108 17.5q-139 0 -170 -180h-57z" />
<glyph vert-adv-y="2234" />
<glyph horiz-adv-x="2048" vert-adv-y="2234" />
<glyph horiz-adv-x="2048" vert-adv-y="2234" />
<glyph horiz-adv-x="2048" vert-adv-y="2234" />
<glyph horiz-adv-x="2048" vert-adv-y="2234" />
<glyph horiz-adv-x="2048" vert-adv-y="2234" />
<glyph unicode="&#x85;" horiz-adv-x="2048" vert-adv-y="2234" />
<glyph horiz-adv-x="2048" vert-adv-y="2234" />
<glyph horiz-adv-x="2048" vert-adv-y="2234" />
<glyph horiz-adv-x="2048" vert-adv-y="2234" />
<glyph horiz-adv-x="2048" vert-adv-y="2234" />
<glyph horiz-adv-x="2048" vert-adv-y="2234" />
<glyph horiz-adv-x="2048" vert-adv-y="2234" />
<glyph horiz-adv-x="2048" vert-adv-y="2234" />
<glyph horiz-adv-x="2048" vert-adv-y="2234" />
<glyph horiz-adv-x="2048" vert-adv-y="2234" />
<glyph horiz-adv-x="2048" vert-adv-y="2234" />
<glyph horiz-adv-x="2048" vert-adv-y="2234" />
<glyph horiz-adv-x="2048" vert-adv-y="2234" />
<glyph horiz-adv-x="2048" vert-adv-y="2234" />
<glyph horiz-adv-x="2048" vert-adv-y="2234" />
<glyph horiz-adv-x="2048" vert-adv-y="2234" />
<glyph horiz-adv-x="2048" vert-adv-y="2234" />
<glyph horiz-adv-x="2048" vert-adv-y="2234" />
<glyph horiz-adv-x="2048" vert-adv-y="2234" />
<glyph horiz-adv-x="2048" vert-adv-y="2234" />
<glyph horiz-adv-x="2048" vert-adv-y="2234" />
<glyph horiz-adv-x="2048" vert-adv-y="2234" />
<glyph horiz-adv-x="2048" vert-adv-y="2234" />
<glyph horiz-adv-x="2048" vert-adv-y="2234" />
<glyph horiz-adv-x="2048" vert-adv-y="2234" />
<glyph horiz-adv-x="2048" vert-adv-y="2234" />
<glyph horiz-adv-x="2048" vert-adv-y="2234" />
<glyph unicode="&#xa0;" vert-adv-y="2234" />
<glyph unicode="&#xa1;" vert-adv-y="2234" />
<glyph unicode="&#xa2;" vert-adv-y="2234" />
<glyph unicode="&#xa3;" vert-adv-y="2234" />
<glyph unicode="&#xa4;" horiz-adv-x="2048" vert-adv-y="2234" d="M276 586q0 279 187 491l-174 174l73 74l179 -174q209 178 487.5 178t478.5 -166l176 170l74 -84l-168 -164q178 -213 178 -490.5t-172 -479.5l168 -164l-82 -80l-168 164q-201 -176 -486.5 -176t-494.5 182l-161 -164l-78 78l164 158q-180 205 -181 473zM379 586 q0 -258 190.5 -441.5t452.5 -183.5q164 0 315.5 89t241.5 236.5t90 299.5q0 264 -190.5 450.5t-456.5 186.5t-454.5 -187.5t-188.5 -449.5z" />
<glyph unicode="&#xa5;" vert-adv-y="2234" />
<glyph unicode="&#xa6;" vert-adv-y="2234" />
<glyph unicode="&#xa7;" horiz-adv-x="2048" vert-adv-y="2234" d="M700 688q0 133 205 209q-129 123 -129 281.5t97.5 238.5t215 80t201.5 -51t84 -135q0 -49 -30.5 -87t-71.5 -38t-68.5 31.5t-27.5 69.5t25.5 55.5t25.5 28.5t-39 32.5t-95.5 21.5t-132 -59t-75.5 -139t66.5 -163t201.5 -159t212 -169t77 -183q0 -151 -193 -227 q133 -139 133 -277.5t-107.5 -225.5t-235.5 -87t-203.5 60.5t-75.5 140.5q0 49 28.5 81.5t71.5 32.5t73 -33.5t30 -73.5t-28 -58.5t-28 -30t32 -23.5t71 -12q96 0 165.5 46t69.5 130t-65.5 173t-184.5 167q-295 190 -295 352zM838 696q0 -41 57.5 -91t282.5 -212 q106 16 123.5 66.5t17.5 86.5t-53.5 86t-147.5 110.5t-147 99.5q-133 -49 -133 -146z" />
<glyph unicode="&#xa8;" horiz-adv-x="2048" vert-adv-y="2234" d="M549 1206.5q0 53.5 41 94t94 40.5t94 -40.5t41 -94t-41 -94.5t-94 -41t-94 41t-41 94.5zM1229 1206.5q0 53.5 41 94t94 40.5t94 -40.5t41 -94t-41 -94.5t-94 -41t-94 41t-41 94.5z" />
<glyph unicode="&#xa9;" vert-adv-y="2234" />
<glyph unicode="&#xaa;" vert-adv-y="2234" />
<glyph unicode="&#xab;" vert-adv-y="2234" />
<glyph unicode="&#xac;" vert-adv-y="2234" />
<glyph unicode="&#xad;" vert-adv-y="2234" />
<glyph unicode="&#xae;" vert-adv-y="2234" />
<glyph unicode="&#xaf;" vert-adv-y="2234" />
<glyph unicode="&#xb0;" horiz-adv-x="2048" vert-adv-y="2234" d="M262 1298.5q0 104.5 73 176t177 71.5q111 0 183.5 -69.5t72.5 -174t-72.5 -176t-181 -71.5t-180.5 69.5t-72 174zM344 1299.5q0 -72.5 48 -119.5t122 -47t123 45.5t49 117.5q0 74 -50 123t-123 49t-121 -48t-48 -120.5z" />
<glyph unicode="&#xb1;" horiz-adv-x="2048" vert-adv-y="2234" d="M401 59h1258v-127h-1258v127zM401 774v127h562v490h135v-490h561v-127h-561v-518h-135v518h-562z" />
<glyph unicode="&#xb2;" vert-adv-y="2234" />
<glyph unicode="&#xb3;" vert-adv-y="2234" />
<glyph unicode="&#xb4;" vert-adv-y="2234" />
<glyph unicode="&#xb5;" vert-adv-y="2234" />
<glyph unicode="&#xb6;" vert-adv-y="2234" />
<glyph unicode="&#xb7;" horiz-adv-x="2048" vert-adv-y="2234" d="M872 612.5q0 61.5 45.5 106.5t106.5 45t106.5 -45t45.5 -106.5t-45.5 -106.5t-106.5 -45t-106.5 45t-45.5 106.5z" />
<glyph unicode="&#xb8;" vert-adv-y="2234" />
<glyph unicode="&#xb9;" vert-adv-y="2234" />
<glyph unicode="&#xba;" vert-adv-y="2234" />
<glyph unicode="&#xbb;" vert-adv-y="2234" />
<glyph unicode="&#xbc;" vert-adv-y="2234" />
<glyph unicode="&#xbd;" vert-adv-y="2234" />
<glyph unicode="&#xbe;" vert-adv-y="2234" />
<glyph unicode="&#xbf;" vert-adv-y="2234" />
<glyph unicode="&#xc0;" vert-adv-y="2234" />
<glyph unicode="&#xc1;" vert-adv-y="2234" />
<glyph unicode="&#xc2;" vert-adv-y="2234" />
<glyph unicode="&#xc3;" vert-adv-y="2234" />
<glyph unicode="&#xc4;" vert-adv-y="2234" />
<glyph unicode="&#xc5;" vert-adv-y="2234" />
<glyph unicode="&#xc6;" vert-adv-y="2234" />
<glyph unicode="&#xc7;" vert-adv-y="2234" />
<glyph unicode="&#xc8;" vert-adv-y="2234" />
<glyph unicode="&#xc9;" vert-adv-y="2234" />
<glyph unicode="&#xca;" vert-adv-y="2234" />
<glyph unicode="&#xcb;" vert-adv-y="2234" />
<glyph unicode="&#xcc;" vert-adv-y="2234" />
<glyph unicode="&#xcd;" vert-adv-y="2234" />
<glyph unicode="&#xce;" vert-adv-y="2234" />
<glyph unicode="&#xcf;" vert-adv-y="2234" />
<glyph unicode="&#xd0;" vert-adv-y="2234" />
<glyph unicode="&#xd1;" vert-adv-y="2234" />
<glyph unicode="&#xd2;" vert-adv-y="2234" />
<glyph unicode="&#xd3;" vert-adv-y="2234" />
<glyph unicode="&#xd4;" vert-adv-y="2234" />
<glyph unicode="&#xd5;" vert-adv-y="2234" />
<glyph unicode="&#xd6;" vert-adv-y="2234" />
<glyph unicode="&#xd7;" horiz-adv-x="2048" vert-adv-y="2234" d="M373 51l532 531l-532 532l102 103l533 -533l532 533l102 -103l-532 -532l530 -531l-102 -102l-530 530l-531 -530z" />
<glyph unicode="&#xd8;" vert-adv-y="2234" />
<glyph unicode="&#xd9;" vert-adv-y="2234" />
<glyph unicode="&#xda;" vert-adv-y="2234" />
<glyph unicode="&#xdb;" vert-adv-y="2234" />
<glyph unicode="&#xdc;" vert-adv-y="2234" />
<glyph unicode="&#xdd;" vert-adv-y="2234" />
<glyph unicode="&#xde;" vert-adv-y="2234" />
<glyph unicode="&#xdf;" vert-adv-y="2234" />
<glyph unicode="&#xe0;" horiz-adv-x="2048" vert-adv-y="2234" d="M776 131q0 135 179.5 302t355.5 167q135 0 135 -158q0 -49 -16.5 -108.5t-30.5 -75.5q-37 -41 -37 -68q0 -59 166 -69q28 -2 28 -10q0 -10 -62 -60.5t-114.5 -50.5t-117 25.5t-76.5 25.5q-10 0 -48 -20.5t-71 -30.5t-78 -10q-98 0 -155.5 35.5t-57.5 105.5zM860 911 q0 31 23.5 58.5t60.5 27.5t98 -30l410 -230l-22 -53q-367 84 -468.5 119t-101.5 108zM924 207q0 -41 34.5 -60.5t83.5 -19.5q84 0 175.5 116.5t91.5 200.5q-1 58 -56 58q-88 0 -208.5 -106.5t-120.5 -188.5z" />
<glyph unicode="&#xe1;" horiz-adv-x="2048" vert-adv-y="2234" d="M743 131q0 135 179.5 302t355.5 167q135 0 135 -158q0 -49 -16.5 -108.5t-30.5 -75.5q-37 -41 -37 -68q0 -59 166 -69q29 -2 29 -10q0 -10 -62.5 -60.5t-115 -50.5t-117 25.5t-76.5 25.5q-10 0 -48 -20.5t-71 -30.5t-78 -10q-98 0 -155.5 35.5t-57.5 105.5zM821 817 q0 55 83 91t491 141l28 -70q-145 -84 -288.5 -160t-178 -87t-66.5 -11t-50.5 32.5t-18.5 63.5zM891 207q0 -41 35 -60.5t84 -19.5q84 0 175 116.5t91 200.5q0 58 -55 58q-88 0 -209 -106.5t-121 -188.5z" />
<glyph unicode="&#xe2;" vert-adv-y="2234" />
<glyph unicode="&#xe3;" vert-adv-y="2234" />
<glyph unicode="&#xe4;" vert-adv-y="2234" />
<glyph unicode="&#xe5;" vert-adv-y="2234" />
<glyph unicode="&#xe6;" vert-adv-y="2234" />
<glyph unicode="&#xe7;" vert-adv-y="2234" />
<glyph unicode="&#xe8;" horiz-adv-x="2048" vert-adv-y="2234" d="M709 230.5q0 111.5 74.5 226t198.5 195.5t216 81q49 0 78 -23.5t29 -62.5q0 -192 -428 -368v-25q0 -59 27.5 -92t85 -33t125 36t200.5 150v-61q-113 -135 -212 -208t-196.5 -73t-147.5 73t-50 184.5zM799 1024q0 25 18.5 46.5t51 21.5t75.5 -23l328 -184l-19 -43 q-119 27 -252 60.5t-154.5 44.5t-34.5 31.5t-13 45.5zM887 344q135 55 206.5 136t71.5 120q0 23 -22 23q-41 0 -136 -78t-120 -201z" />
<glyph unicode="&#xe9;" horiz-adv-x="2048" vert-adv-y="2234" d="M709 230.5q0 111.5 74.5 226t198.5 195.5t216 81q49 0 78 -23.5t29 -62.5q0 -192 -428 -368v-25q0 -59 27.5 -92t85 -33t125 36t200.5 150v-61q-113 -135 -212 -208t-196.5 -73t-147.5 73t-50 184.5zM754 836q0 45 60 70.5t398 113.5l25 -55q-109 -63 -226.5 -125 t-146 -72t-55.5 -10t-41 27.5t-14 50.5zM887 344q135 55 206.5 136t71.5 120q0 23 -22 23q-41 0 -136 -78t-120 -201z" />
<glyph unicode="&#xea;" horiz-adv-x="2048" vert-adv-y="2234" d="M709 230.5q0 111.5 74.5 226t198.5 195.5t216 81q49 0 78 -23.5t29 -62.5q0 -192 -428 -368v-25q0 -59 27.5 -92t85 -33t125 36t200.5 150v-61q-113 -135 -212 -208t-196.5 -73t-147.5 73t-50 184.5zM772 788l279 289l278 -289l-39 -38l-239 153l-240 -153zM887 344 q135 55 206.5 136t71.5 120q0 23 -22 23q-41 0 -136 -78t-120 -201z" />
<glyph unicode="&#xeb;" vert-adv-y="2234" />
<glyph unicode="&#xec;" horiz-adv-x="2048" vert-adv-y="2234" d="M868 954.5q0 22.5 16.5 43t45.5 20.5q67 -1 352 -191l-14 -39q-231 57 -299 76t-84.5 43.5t-16.5 47zM870 164q0 78 34 179t80 176t67 75q57 0 57 -59q0 -29 -14 -66q-109 -268 -109 -309q0 -12 8 -31.5t71.5 -24t91.5 -4.5t49.5 2t39 2t17.5 -18q0 -100 -207 -100 q-184 0 -185 178z" />
<glyph unicode="&#xed;" horiz-adv-x="2048" vert-adv-y="2234" d="M827 164q0 78 34 179t80 176t67 75q57 0 57 -59q0 -29 -14 -66q-109 -268 -109 -309q0 -12 8 -31.5t71.5 -24t91.5 -4.5t49.5 2t39 2t17.5 -18q0 -100 -207 -100q-184 0 -185 178zM827 856q0 49 78 74l316 98l20 -57q-260 -152 -294 -169.5t-61.5 -17.5t-43 21.5 t-15.5 50.5z" />
<glyph unicode="&#xee;" vert-adv-y="2234" />
<glyph unicode="&#xef;" vert-adv-y="2234" />
<glyph unicode="&#xf0;" vert-adv-y="2234" />
<glyph unicode="&#xf1;" vert-adv-y="2234" />
<glyph unicode="&#xf2;" horiz-adv-x="2048" vert-adv-y="2234" d="M694 188q0 117 146.5 267.5t292.5 150.5q119 0 201.5 -96t82.5 -215q0 -145 -117.5 -228t-289.5 -83q-137 0 -226.5 56t-89.5 148zM770 1010q0 31 23.5 58.5t60.5 27.5t98 -31l410 -229l-23 -54q-367 84 -468 119t-101 109zM846 254q0 -63 53 -109.5t135 -46.5 q92 0 157.5 48.5t65.5 138.5q0 72 -48 132t-123.5 60t-157.5 -70.5t-82 -152.5z" />
<glyph unicode="&#xf3;" horiz-adv-x="2048" vert-adv-y="2234" d="M700 188q0 117 146.5 267.5t292.5 150.5q119 0 201.5 -96t82.5 -215q0 -145 -117.5 -228t-289.5 -83q-137 0 -226.5 56t-89.5 148zM776 852q0 55 76 89t498 142l28 -69q-125 -72 -278.5 -153t-189.5 -93t-67.5 -12t-49 33.5t-17.5 62.5zM852 254q0 -63 53 -109.5 t135 -46.5q92 0 158 48.5t66 138.5q0 72 -48.5 132t-124 60t-157.5 -70.5t-82 -152.5z" />
<glyph unicode="&#xf4;" vert-adv-y="2234" />
<glyph unicode="&#xf5;" vert-adv-y="2234" />
<glyph unicode="&#xf6;" vert-adv-y="2234" />
<glyph unicode="&#xf7;" horiz-adv-x="2048" vert-adv-y="2234" d="M319 528v136h1405v-136h-1405zM891 239.5q0 53.5 39 92.5t92 39t92 -39t39 -92.5t-39 -92t-92 -38.5t-92 38.5t-39 92zM891 952.5q0 53.5 39 92t92 38.5t92 -38.5t39 -92t-39 -92.5t-92 -39t-92 39t-39 92.5z" />
<glyph unicode="&#xf8;" vert-adv-y="2234" />
<glyph unicode="&#xf9;" horiz-adv-x="2048" vert-adv-y="2234" d="M727 135q0 74 49 156t49 160q0 12 -6 46.5t-6 61.5q0 55 57 55q35 0 63 -58t28 -124.5t-17 -112.5q-41 -111 -41 -133t12.5 -29t47.5 -7q145 0 190 64.5t47 119.5q6 111 15.5 170t21.5 73.5t37.5 14.5t62.5 -21.5t37 -44.5q0 -66 -8 -132t-16 -87q-27 -66 -27 -97.5 t18.5 -55t51.5 -23.5q10 0 30.5 4t33.5 4t13 -8q0 -20 -44 -82.5t-107 -62.5q-47 0 -94 41q-39 35 -61.5 34.5t-72 -27t-95.5 -37.5t-76 -11q-84 0 -138.5 38.5t-54.5 110.5zM817 1004q0 31 23.5 58.5t60.5 27.5t98 -31l410 -230l-23 -53q-367 84 -468 119t-101 109z" />
<glyph unicode="&#xfa;" horiz-adv-x="2048" vert-adv-y="2234" d="M686 135q0 74 49 156t49 160q0 12 -6 46.5t-6 61.5q0 55 57 55q35 0 63 -58t28 -124.5t-17 -112.5q-41 -111 -41 -133t12.5 -29t47.5 -7q145 0 190 64.5t47 119.5q6 111 15.5 170t21.5 73.5t38 14.5t62.5 -21.5t36.5 -44.5q0 -66 -8 -132t-16 -87q-27 -68 -27 -98.5 t18.5 -54t51.5 -23.5q10 0 30.5 4t34 4t13.5 -8q0 -20 -44.5 -82.5t-107.5 -62.5q-47 0 -94 41q-39 35 -61.5 34.5t-72 -27t-95.5 -37.5t-76 -11q-84 0 -138.5 38.5t-54.5 110.5zM782 852q0 55 83 91t491 140l28 -69q-145 -84 -288.5 -160t-178 -87t-66.5 -11t-50.5 32.5 t-18.5 63.5z" />
<glyph unicode="&#xfb;" vert-adv-y="2234" />
<glyph unicode="&#xfc;" horiz-adv-x="2048" vert-adv-y="2234" d="M743 135q0 74 49.5 156t49.5 160q0 12 -6.5 46.5t-6.5 61.5q0 55 58 55q35 0 62.5 -58t27.5 -124.5t-16 -112.5q-41 -111 -41 -133t12 -29t47 -7q145 0 190 64.5t48 119.5q6 111 15 170t21.5 73.5t38 14.5t62.5 -21.5t37 -44.5q0 -66 -8.5 -132t-26 -111t-17.5 -74 t18.5 -53.5t51.5 -24.5q10 0 30.5 4t34 4t13.5 -8q0 -20 -44 -82.5t-108 -62.5q-47 0 -94 41q-39 35 -61.5 34.5t-71.5 -27t-95 -37.5t-77 -11q-84 0 -138.5 38.5t-54.5 110.5zM813 798.5q0 32.5 23.5 55.5t56.5 23t55.5 -23t22.5 -55.5t-22.5 -55t-55.5 -22.5t-56.5 22.5 t-23.5 55zM1266 792.5q0 32.5 22 55t55 22.5t55.5 -22.5t22.5 -55t-22.5 -55t-55 -22.5t-55 22.5t-22.5 55z" />
<glyph unicode="&#xfd;" vert-adv-y="2234" />
<glyph unicode="&#xfe;" vert-adv-y="2234" />
<glyph unicode="&#xff;" vert-adv-y="2234" />
<glyph unicode="&#x2000;" horiz-adv-x="779" vert-adv-y="0" />
<glyph unicode="&#x2001;" horiz-adv-x="1559" vert-adv-y="0" />
<glyph unicode="&#x2002;" horiz-adv-x="779" vert-adv-y="0" />
<glyph unicode="&#x2003;" horiz-adv-x="1559" vert-adv-y="0" />
<glyph unicode="&#x2004;" horiz-adv-x="519" vert-adv-y="0" />
<glyph unicode="&#x2005;" horiz-adv-x="389" vert-adv-y="0" />
<glyph unicode="&#x2006;" horiz-adv-x="259" vert-adv-y="0" />
<glyph unicode="&#x2007;" horiz-adv-x="259" vert-adv-y="0" />
<glyph unicode="&#x2008;" horiz-adv-x="194" vert-adv-y="0" />
<glyph unicode="&#x2009;" horiz-adv-x="311" vert-adv-y="0" />
<glyph unicode="&#x200a;" horiz-adv-x="86" vert-adv-y="0" />
<glyph unicode="&#x2010;" horiz-adv-x="1044" vert-adv-y="2234" d="M256 453q0 29 62.5 87t234.5 58q51 0 147 -10q35 8 41 8l50 -8q55 -6 55 -17q0 -12 -52.5 -55t-101.5 -57.5t-143 -21.5t-170 -7q-72 0 -97.5 4t-25.5 19z" />
<glyph unicode="&#x2011;" horiz-adv-x="1044" vert-adv-y="2234" d="M256 453q0 29 62.5 87t234.5 58q51 0 147 -10q35 8 41 8l50 -8q55 -6 55 -17q0 -12 -52.5 -55t-101.5 -57.5t-143 -21.5t-170 -7q-72 0 -97.5 4t-25.5 19z" />
<glyph unicode="&#x2012;" horiz-adv-x="1044" vert-adv-y="2234" d="M256 453q0 29 62.5 87t234.5 58q51 0 147 -10q35 8 41 8l50 -8q55 -6 55 -17q0 -12 -52.5 -55t-101.5 -57.5t-143 -21.5t-170 -7q-72 0 -97.5 4t-25.5 19z" />
<glyph unicode="&#x2013;" horiz-adv-x="1478" vert-adv-y="2234" d="M256 453q0 29 108.5 87t406.5 58q89 0 256 -10q60 8 71 8l87 -8q95 -6 95 -17q0 -12 -91 -55t-176 -57.5t-248.5 -21.5t-295.5 -7q-124 0 -168.5 4t-44.5 19z" />
<glyph unicode="&#x2014;" horiz-adv-x="2048" vert-adv-y="2234" d="M0 549v119h2048v-119h-2048z" />
<glyph unicode="&#x2018;" horiz-adv-x="2048" vert-adv-y="2234" d="M1610 1169q0 109 92 244t129 135q12 0 12 -17t-16 -42q-55 -84 -70 -139q66 0 66 -60q0 -39 -49.5 -125t-112.5 -86q-35 0 -43 29t-8 61z" />
<glyph unicode="&#x2019;" horiz-adv-x="2048" vert-adv-y="2234" d="M225.5 1106q-0.5 16 16.5 43q55 82 69 139q-66 0 -65 60q0 43 50 127t105 84q31 0 44.5 -21.5t13.5 -69.5q0 -109 -92.5 -243.5t-128.5 -134.5q-12 0 -12.5 16z" />
<glyph unicode="&#x201c;" horiz-adv-x="2048" vert-adv-y="2234" d="M1282 1169q0 109 92 244t129 135q12 0 12 -17t-16 -42q-55 -84 -69 -139q66 0 65 -60q0 -41 -50 -126t-106 -85q-31 0 -44 21.5t-13 68.5zM1610 1169q0 109 92 244t129 135q12 0 12 -17t-16 -42q-55 -84 -70 -139q66 0 66 -60q0 -41 -50.5 -126t-105.5 -85 q-31 0 -44 21.5t-13 68.5z" />
<glyph unicode="&#x201d;" horiz-adv-x="2048" vert-adv-y="2234" d="M225.5 1106q-0.5 16 16.5 43q55 82 69 139q-66 0 -65 60q0 41 49 126t111 85q31 0 42 -24t11 -67q0 -109 -92.5 -243.5t-128.5 -134.5q-12 0 -12.5 16zM553 1106q0 16 16 43q56 82 70 139q-66 0 -66 60q0 41 49.5 126t110.5 85q31 0 42 -24t11 -67q0 -109 -92 -243.5 t-129 -134.5q-12 0 -12 16z" />
<glyph unicode="&#x2026;" horiz-adv-x="2048" vert-adv-y="2234" d="M203 610.5q0 55.5 41 96.5t96 41t96 -41t41 -96.5t-41 -96.5t-96 -41t-96 41t-41 96.5zM887 610.5q0 55.5 41 96.5t96 41t96 -41t41 -96.5t-41 -96.5t-96 -41t-96 41t-41 96.5zM1571 610.5q0 55.5 41 96.5t96 41t96 -41t41 -96.5t-41 -96.5t-96 -41t-96 41t-41 96.5z" />
<glyph unicode="&#x202f;" horiz-adv-x="311" vert-adv-y="0" />
<glyph unicode="&#x205f;" horiz-adv-x="389" vert-adv-y="0" />
<glyph unicode="&#x25fc;" horiz-adv-x="757" vert-adv-y="1515" d="M0 0v758h758v-758h-758z" />
</font>
</defs>
</svg>
